<mxfile host="Electron" modified="2023-11-22T16:00:41.131Z" agent="Mozilla/5.0 (Windows NT 10.0; Win64; x64) AppleWebKit/537.36 (KHTML, like Gecko) draw.io/22.1.2 Chrome/114.0.5735.289 Electron/25.9.4 Safari/537.36" version="22.1.2" etag="jk3VDugVDz8DTVkAB47p" type="device" pages="3">
  <diagram id="G5YZv2hwmZqTQixywors" name="Page-1">
    <mxGraphModel dx="1728" dy="1112" grid="1" gridSize="10" guides="1" tooltips="1" connect="1" arrows="1" fold="1" page="1" pageScale="1" pageWidth="1100" pageHeight="850" math="0" shadow="0">
      <root>
        <mxCell id="0" />
        <mxCell id="1" parent="0" />
        <mxCell id="2" value="Table" style="shape=table;startSize=30;container=1;collapsible=1;childLayout=tableLayout;fixedRows=1;rowLines=0;fontStyle=1;align=center;resizeLast=1;fillColor=#1ba1e2;fontColor=#000000;strokeColor=#006EAF;" parent="1" vertex="1">
          <mxGeometry x="210" y="120" width="180" height="150" as="geometry" />
        </mxCell>
        <mxCell id="3" value="" style="shape=tableRow;horizontal=0;startSize=0;swimlaneHead=0;swimlaneBody=0;fillColor=none;collapsible=0;dropTarget=0;points=[[0,0.5],[1,0.5]];portConstraint=eastwest;top=0;left=0;right=0;bottom=1;" parent="2" vertex="1">
          <mxGeometry y="30" width="180" height="30" as="geometry" />
        </mxCell>
        <mxCell id="4" value="PK" style="shape=partialRectangle;connectable=0;fillColor=none;top=0;left=0;bottom=0;right=0;fontStyle=1;overflow=hidden;" parent="3" vertex="1">
          <mxGeometry width="30" height="30" as="geometry">
            <mxRectangle width="30" height="30" as="alternateBounds" />
          </mxGeometry>
        </mxCell>
        <mxCell id="5" value="UniqueID" style="shape=partialRectangle;connectable=0;fillColor=none;top=0;left=0;bottom=0;right=0;align=left;spacingLeft=6;fontStyle=5;overflow=hidden;" parent="3" vertex="1">
          <mxGeometry x="30" width="150" height="30" as="geometry">
            <mxRectangle width="150" height="30" as="alternateBounds" />
          </mxGeometry>
        </mxCell>
        <mxCell id="6" value="" style="shape=tableRow;horizontal=0;startSize=0;swimlaneHead=0;swimlaneBody=0;fillColor=none;collapsible=0;dropTarget=0;points=[[0,0.5],[1,0.5]];portConstraint=eastwest;top=0;left=0;right=0;bottom=0;" parent="2" vertex="1">
          <mxGeometry y="60" width="180" height="30" as="geometry" />
        </mxCell>
        <mxCell id="7" value="" style="shape=partialRectangle;connectable=0;fillColor=none;top=0;left=0;bottom=0;right=0;editable=1;overflow=hidden;" parent="6" vertex="1">
          <mxGeometry width="30" height="30" as="geometry">
            <mxRectangle width="30" height="30" as="alternateBounds" />
          </mxGeometry>
        </mxCell>
        <mxCell id="8" value="Row 1" style="shape=partialRectangle;connectable=0;fillColor=none;top=0;left=0;bottom=0;right=0;align=left;spacingLeft=6;overflow=hidden;" parent="6" vertex="1">
          <mxGeometry x="30" width="150" height="30" as="geometry">
            <mxRectangle width="150" height="30" as="alternateBounds" />
          </mxGeometry>
        </mxCell>
        <mxCell id="9" value="" style="shape=tableRow;horizontal=0;startSize=0;swimlaneHead=0;swimlaneBody=0;fillColor=none;collapsible=0;dropTarget=0;points=[[0,0.5],[1,0.5]];portConstraint=eastwest;top=0;left=0;right=0;bottom=0;" parent="2" vertex="1">
          <mxGeometry y="90" width="180" height="30" as="geometry" />
        </mxCell>
        <mxCell id="10" value="" style="shape=partialRectangle;connectable=0;fillColor=none;top=0;left=0;bottom=0;right=0;editable=1;overflow=hidden;" parent="9" vertex="1">
          <mxGeometry width="30" height="30" as="geometry">
            <mxRectangle width="30" height="30" as="alternateBounds" />
          </mxGeometry>
        </mxCell>
        <mxCell id="11" value="Row 2" style="shape=partialRectangle;connectable=0;fillColor=none;top=0;left=0;bottom=0;right=0;align=left;spacingLeft=6;overflow=hidden;" parent="9" vertex="1">
          <mxGeometry x="30" width="150" height="30" as="geometry">
            <mxRectangle width="150" height="30" as="alternateBounds" />
          </mxGeometry>
        </mxCell>
        <mxCell id="12" value="" style="shape=tableRow;horizontal=0;startSize=0;swimlaneHead=0;swimlaneBody=0;fillColor=none;collapsible=0;dropTarget=0;points=[[0,0.5],[1,0.5]];portConstraint=eastwest;top=0;left=0;right=0;bottom=0;" parent="2" vertex="1">
          <mxGeometry y="120" width="180" height="30" as="geometry" />
        </mxCell>
        <mxCell id="13" value="" style="shape=partialRectangle;connectable=0;fillColor=none;top=0;left=0;bottom=0;right=0;editable=1;overflow=hidden;" parent="12" vertex="1">
          <mxGeometry width="30" height="30" as="geometry">
            <mxRectangle width="30" height="30" as="alternateBounds" />
          </mxGeometry>
        </mxCell>
        <mxCell id="14" value="Row 3" style="shape=partialRectangle;connectable=0;fillColor=none;top=0;left=0;bottom=0;right=0;align=left;spacingLeft=6;overflow=hidden;" parent="12" vertex="1">
          <mxGeometry x="30" width="150" height="30" as="geometry">
            <mxRectangle width="150" height="30" as="alternateBounds" />
          </mxGeometry>
        </mxCell>
      </root>
    </mxGraphModel>
  </diagram>
  <diagram id="ZZgZPFOlUfm9PNeMwX_s" name="class_diagram">
    <mxGraphModel grid="1" page="1" gridSize="10" guides="1" tooltips="1" connect="1" arrows="1" fold="1" pageScale="1" pageWidth="1100" pageHeight="850" background="#ffffff" math="0" shadow="0">
      <root>
        <mxCell id="0" />
        <mxCell id="1" parent="0" />
        <mxCell id="JzSRVAhyTPlt0G2GrEUY-1" value="" style="rounded=1;whiteSpace=wrap;html=1;fillColor=#001933;strokeColor=none;" parent="1" vertex="1">
          <mxGeometry x="20" y="80" width="1040" height="360" as="geometry" />
        </mxCell>
        <mxCell id="MbBB12TEAA-Hdop7hR2p-94" value="rents" style="shape=table;startSize=30;container=1;collapsible=1;childLayout=tableLayout;fixedRows=1;rowLines=0;fontStyle=1;align=center;resizeLast=1;fontColor=#FFFFFF;fillColor=#00994D;strokeColor=#00994D;strokeWidth=3;" parent="1" vertex="1">
          <mxGeometry x="445" y="164" width="210" height="210" as="geometry" />
        </mxCell>
        <mxCell id="MbBB12TEAA-Hdop7hR2p-95" value="" style="shape=tableRow;horizontal=0;startSize=0;swimlaneHead=0;swimlaneBody=0;fillColor=none;collapsible=0;dropTarget=0;points=[[0,0.5],[1,0.5]];portConstraint=eastwest;top=0;left=0;right=0;bottom=1;fontColor=#FFFFFF;" parent="MbBB12TEAA-Hdop7hR2p-94" vertex="1">
          <mxGeometry y="30" width="210" height="30" as="geometry" />
        </mxCell>
        <mxCell id="MbBB12TEAA-Hdop7hR2p-96" value="PK" style="shape=partialRectangle;connectable=0;fillColor=none;top=0;left=0;bottom=0;right=0;fontStyle=1;overflow=hidden;fontColor=#FFFFFF;" parent="MbBB12TEAA-Hdop7hR2p-95" vertex="1">
          <mxGeometry width="30" height="30" as="geometry">
            <mxRectangle width="30" height="30" as="alternateBounds" />
          </mxGeometry>
        </mxCell>
        <mxCell id="MbBB12TEAA-Hdop7hR2p-97" value="rentId            integer" style="shape=partialRectangle;connectable=0;fillColor=none;top=0;left=0;bottom=0;right=0;align=left;spacingLeft=6;fontStyle=5;overflow=hidden;fontColor=#FFFFFF;" parent="MbBB12TEAA-Hdop7hR2p-95" vertex="1">
          <mxGeometry x="30" width="180" height="30" as="geometry">
            <mxRectangle width="180" height="30" as="alternateBounds" />
          </mxGeometry>
        </mxCell>
        <mxCell id="MbBB12TEAA-Hdop7hR2p-98" value="" style="shape=tableRow;horizontal=0;startSize=0;swimlaneHead=0;swimlaneBody=0;fillColor=none;collapsible=0;dropTarget=0;points=[[0,0.5],[1,0.5]];portConstraint=eastwest;top=0;left=0;right=0;bottom=0;fontColor=#FFFFFF;" parent="MbBB12TEAA-Hdop7hR2p-94" vertex="1">
          <mxGeometry y="60" width="210" height="30" as="geometry" />
        </mxCell>
        <mxCell id="MbBB12TEAA-Hdop7hR2p-99" value="" style="shape=partialRectangle;connectable=0;fillColor=none;top=0;left=0;bottom=0;right=0;editable=1;overflow=hidden;fontColor=#FFFFFF;" parent="MbBB12TEAA-Hdop7hR2p-98" vertex="1">
          <mxGeometry width="30" height="30" as="geometry">
            <mxRectangle width="30" height="30" as="alternateBounds" />
          </mxGeometry>
        </mxCell>
        <mxCell id="MbBB12TEAA-Hdop7hR2p-100" value="date_start        DateTime" style="shape=partialRectangle;connectable=0;fillColor=none;top=0;left=0;bottom=0;right=0;align=left;spacingLeft=6;overflow=hidden;fontColor=#FFFFFF;" parent="MbBB12TEAA-Hdop7hR2p-98" vertex="1">
          <mxGeometry x="30" width="180" height="30" as="geometry">
            <mxRectangle width="180" height="30" as="alternateBounds" />
          </mxGeometry>
        </mxCell>
        <mxCell id="MbBB12TEAA-Hdop7hR2p-101" value="" style="shape=tableRow;horizontal=0;startSize=0;swimlaneHead=0;swimlaneBody=0;fillColor=none;collapsible=0;dropTarget=0;points=[[0,0.5],[1,0.5]];portConstraint=eastwest;top=0;left=0;right=0;bottom=0;fontColor=#FFFFFF;" parent="MbBB12TEAA-Hdop7hR2p-94" vertex="1">
          <mxGeometry y="90" width="210" height="30" as="geometry" />
        </mxCell>
        <mxCell id="MbBB12TEAA-Hdop7hR2p-102" value="" style="shape=partialRectangle;connectable=0;fillColor=none;top=0;left=0;bottom=0;right=0;editable=1;overflow=hidden;fontColor=#FFFFFF;" parent="MbBB12TEAA-Hdop7hR2p-101" vertex="1">
          <mxGeometry width="30" height="30" as="geometry">
            <mxRectangle width="30" height="30" as="alternateBounds" />
          </mxGeometry>
        </mxCell>
        <mxCell id="MbBB12TEAA-Hdop7hR2p-103" value="date_end        DateTime" style="shape=partialRectangle;connectable=0;fillColor=none;top=0;left=0;bottom=0;right=0;align=left;spacingLeft=6;overflow=hidden;fontColor=#FFFFFF;" parent="MbBB12TEAA-Hdop7hR2p-101" vertex="1">
          <mxGeometry x="30" width="180" height="30" as="geometry">
            <mxRectangle width="180" height="30" as="alternateBounds" />
          </mxGeometry>
        </mxCell>
        <mxCell id="MbBB12TEAA-Hdop7hR2p-104" value="" style="shape=tableRow;horizontal=0;startSize=0;swimlaneHead=0;swimlaneBody=0;fillColor=none;collapsible=0;dropTarget=0;points=[[0,0.5],[1,0.5]];portConstraint=eastwest;top=0;left=0;right=0;bottom=0;fontColor=#FFFFFF;" parent="MbBB12TEAA-Hdop7hR2p-94" vertex="1">
          <mxGeometry y="120" width="210" height="30" as="geometry" />
        </mxCell>
        <mxCell id="MbBB12TEAA-Hdop7hR2p-105" value="" style="shape=partialRectangle;connectable=0;fillColor=none;top=0;left=0;bottom=0;right=0;editable=1;overflow=hidden;fontColor=#FFFFFF;" parent="MbBB12TEAA-Hdop7hR2p-104" vertex="1">
          <mxGeometry width="30" height="30" as="geometry">
            <mxRectangle width="30" height="30" as="alternateBounds" />
          </mxGeometry>
        </mxCell>
        <mxCell id="MbBB12TEAA-Hdop7hR2p-106" value="total_pay        float" style="shape=partialRectangle;connectable=0;fillColor=none;top=0;left=0;bottom=0;right=0;align=left;spacingLeft=6;overflow=hidden;fontColor=#FFFFFF;" parent="MbBB12TEAA-Hdop7hR2p-104" vertex="1">
          <mxGeometry x="30" width="180" height="30" as="geometry">
            <mxRectangle width="180" height="30" as="alternateBounds" />
          </mxGeometry>
        </mxCell>
        <mxCell id="MbBB12TEAA-Hdop7hR2p-107" value="" style="shape=tableRow;horizontal=0;startSize=0;swimlaneHead=0;swimlaneBody=0;fillColor=none;collapsible=0;dropTarget=0;points=[[0,0.5],[1,0.5]];portConstraint=eastwest;top=0;left=0;right=0;bottom=1;fontColor=#FFFFFF;" parent="MbBB12TEAA-Hdop7hR2p-94" vertex="1">
          <mxGeometry y="150" width="210" height="30" as="geometry" />
        </mxCell>
        <mxCell id="MbBB12TEAA-Hdop7hR2p-108" value="FK" style="shape=partialRectangle;connectable=0;fillColor=none;top=0;left=0;bottom=0;right=0;fontStyle=1;overflow=hidden;fontColor=#FFFFFF;" parent="MbBB12TEAA-Hdop7hR2p-107" vertex="1">
          <mxGeometry width="30" height="30" as="geometry">
            <mxRectangle width="30" height="30" as="alternateBounds" />
          </mxGeometry>
        </mxCell>
        <mxCell id="MbBB12TEAA-Hdop7hR2p-109" value="userId            integer" style="shape=partialRectangle;connectable=0;fillColor=none;top=0;left=0;bottom=0;right=0;align=left;spacingLeft=6;fontStyle=5;overflow=hidden;fontColor=#FFFFFF;" parent="MbBB12TEAA-Hdop7hR2p-107" vertex="1">
          <mxGeometry x="30" width="180" height="30" as="geometry">
            <mxRectangle width="180" height="30" as="alternateBounds" />
          </mxGeometry>
        </mxCell>
        <mxCell id="MbBB12TEAA-Hdop7hR2p-110" value="" style="shape=tableRow;horizontal=0;startSize=0;swimlaneHead=0;swimlaneBody=0;fillColor=none;collapsible=0;dropTarget=0;points=[[0,0.5],[1,0.5]];portConstraint=eastwest;top=0;left=0;right=0;bottom=1;fontColor=#FFFFFF;" parent="MbBB12TEAA-Hdop7hR2p-94" vertex="1">
          <mxGeometry y="180" width="210" height="30" as="geometry" />
        </mxCell>
        <mxCell id="MbBB12TEAA-Hdop7hR2p-111" value="FK" style="shape=partialRectangle;connectable=0;fillColor=none;top=0;left=0;bottom=0;right=0;fontStyle=1;overflow=hidden;fontColor=#FFFFFF;" parent="MbBB12TEAA-Hdop7hR2p-110" vertex="1">
          <mxGeometry width="30" height="30" as="geometry">
            <mxRectangle width="30" height="30" as="alternateBounds" />
          </mxGeometry>
        </mxCell>
        <mxCell id="MbBB12TEAA-Hdop7hR2p-112" value="vehicleId            integer" style="shape=partialRectangle;connectable=0;fillColor=none;top=0;left=0;bottom=0;right=0;align=left;spacingLeft=6;fontStyle=5;overflow=hidden;fontColor=#FFFFFF;" parent="MbBB12TEAA-Hdop7hR2p-110" vertex="1">
          <mxGeometry x="30" width="180" height="30" as="geometry">
            <mxRectangle width="180" height="30" as="alternateBounds" />
          </mxGeometry>
        </mxCell>
        <mxCell id="MbBB12TEAA-Hdop7hR2p-113" value="" style="edgeStyle=entityRelationEdgeStyle;fontSize=12;html=1;endArrow=ERzeroToMany;endFill=1;fontColor=#FFFFFF;exitX=1;exitY=0.5;exitDx=0;exitDy=0;entryX=0;entryY=0.5;entryDx=0;entryDy=0;strokeColor=#00994D;strokeWidth=3;startArrow=ERmandOne;startFill=0;" parent="1" source="MbBB12TEAA-Hdop7hR2p-53" target="MbBB12TEAA-Hdop7hR2p-107" edge="1">
          <mxGeometry width="100" height="100" relative="1" as="geometry">
            <mxPoint x="275.05" y="416" as="sourcePoint" />
            <mxPoint x="386.05" y="404" as="targetPoint" />
          </mxGeometry>
        </mxCell>
        <mxCell id="MbBB12TEAA-Hdop7hR2p-52" value="users" style="shape=table;startSize=30;container=1;collapsible=1;childLayout=tableLayout;fixedRows=1;rowLines=0;fontStyle=1;align=center;resizeLast=1;fontColor=#FFFFFF;fillColor=#00994D;strokeColor=#00994D;strokeWidth=3;" parent="1" vertex="1">
          <mxGeometry x="55" y="164" width="270" height="240" as="geometry" />
        </mxCell>
        <mxCell id="MbBB12TEAA-Hdop7hR2p-53" value="" style="shape=tableRow;horizontal=0;startSize=0;swimlaneHead=0;swimlaneBody=0;fillColor=none;collapsible=0;dropTarget=0;points=[[0,0.5],[1,0.5]];portConstraint=eastwest;top=0;left=0;right=0;bottom=1;fontColor=#FFFFFF;" parent="MbBB12TEAA-Hdop7hR2p-52" vertex="1">
          <mxGeometry y="30" width="270" height="30" as="geometry" />
        </mxCell>
        <mxCell id="MbBB12TEAA-Hdop7hR2p-54" value="PK" style="shape=partialRectangle;connectable=0;fillColor=none;top=0;left=0;bottom=0;right=0;fontStyle=1;overflow=hidden;fontColor=#FFFFFF;" parent="MbBB12TEAA-Hdop7hR2p-53" vertex="1">
          <mxGeometry width="30" height="30" as="geometry">
            <mxRectangle width="30" height="30" as="alternateBounds" />
          </mxGeometry>
        </mxCell>
        <mxCell id="MbBB12TEAA-Hdop7hR2p-55" value="userId            integer" style="shape=partialRectangle;connectable=0;fillColor=none;top=0;left=0;bottom=0;right=0;align=left;spacingLeft=6;fontStyle=5;overflow=hidden;fontColor=#FFFFFF;" parent="MbBB12TEAA-Hdop7hR2p-53" vertex="1">
          <mxGeometry x="30" width="240" height="30" as="geometry">
            <mxRectangle width="240" height="30" as="alternateBounds" />
          </mxGeometry>
        </mxCell>
        <mxCell id="MbBB12TEAA-Hdop7hR2p-56" value="" style="shape=tableRow;horizontal=0;startSize=0;swimlaneHead=0;swimlaneBody=0;fillColor=none;collapsible=0;dropTarget=0;points=[[0,0.5],[1,0.5]];portConstraint=eastwest;top=0;left=0;right=0;bottom=0;fontColor=#FFFFFF;" parent="MbBB12TEAA-Hdop7hR2p-52" vertex="1">
          <mxGeometry y="60" width="270" height="30" as="geometry" />
        </mxCell>
        <mxCell id="MbBB12TEAA-Hdop7hR2p-57" value="" style="shape=partialRectangle;connectable=0;fillColor=none;top=0;left=0;bottom=0;right=0;editable=1;overflow=hidden;fontColor=#FFFFFF;" parent="MbBB12TEAA-Hdop7hR2p-56" vertex="1">
          <mxGeometry width="30" height="30" as="geometry">
            <mxRectangle width="30" height="30" as="alternateBounds" />
          </mxGeometry>
        </mxCell>
        <mxCell id="MbBB12TEAA-Hdop7hR2p-58" value="username        varchar(150)            unique" style="shape=partialRectangle;connectable=0;fillColor=none;top=0;left=0;bottom=0;right=0;align=left;spacingLeft=6;overflow=hidden;fontColor=#FFFFFF;" parent="MbBB12TEAA-Hdop7hR2p-56" vertex="1">
          <mxGeometry x="30" width="240" height="30" as="geometry">
            <mxRectangle width="240" height="30" as="alternateBounds" />
          </mxGeometry>
        </mxCell>
        <mxCell id="MbBB12TEAA-Hdop7hR2p-59" value="" style="shape=tableRow;horizontal=0;startSize=0;swimlaneHead=0;swimlaneBody=0;fillColor=none;collapsible=0;dropTarget=0;points=[[0,0.5],[1,0.5]];portConstraint=eastwest;top=0;left=0;right=0;bottom=0;fontColor=#FFFFFF;" parent="MbBB12TEAA-Hdop7hR2p-52" vertex="1">
          <mxGeometry y="90" width="270" height="30" as="geometry" />
        </mxCell>
        <mxCell id="MbBB12TEAA-Hdop7hR2p-60" value="" style="shape=partialRectangle;connectable=0;fillColor=none;top=0;left=0;bottom=0;right=0;editable=1;overflow=hidden;fontColor=#FFFFFF;" parent="MbBB12TEAA-Hdop7hR2p-59" vertex="1">
          <mxGeometry width="30" height="30" as="geometry">
            <mxRectangle width="30" height="30" as="alternateBounds" />
          </mxGeometry>
        </mxCell>
        <mxCell id="MbBB12TEAA-Hdop7hR2p-61" value="first_name        varchar(150)" style="shape=partialRectangle;connectable=0;fillColor=none;top=0;left=0;bottom=0;right=0;align=left;spacingLeft=6;overflow=hidden;fontColor=#FFFFFF;" parent="MbBB12TEAA-Hdop7hR2p-59" vertex="1">
          <mxGeometry x="30" width="240" height="30" as="geometry">
            <mxRectangle width="240" height="30" as="alternateBounds" />
          </mxGeometry>
        </mxCell>
        <mxCell id="MbBB12TEAA-Hdop7hR2p-62" value="" style="shape=tableRow;horizontal=0;startSize=0;swimlaneHead=0;swimlaneBody=0;fillColor=none;collapsible=0;dropTarget=0;points=[[0,0.5],[1,0.5]];portConstraint=eastwest;top=0;left=0;right=0;bottom=0;fontColor=#FFFFFF;" parent="MbBB12TEAA-Hdop7hR2p-52" vertex="1">
          <mxGeometry y="120" width="270" height="30" as="geometry" />
        </mxCell>
        <mxCell id="MbBB12TEAA-Hdop7hR2p-63" value="" style="shape=partialRectangle;connectable=0;fillColor=none;top=0;left=0;bottom=0;right=0;editable=1;overflow=hidden;fontColor=#FFFFFF;" parent="MbBB12TEAA-Hdop7hR2p-62" vertex="1">
          <mxGeometry width="30" height="30" as="geometry">
            <mxRectangle width="30" height="30" as="alternateBounds" />
          </mxGeometry>
        </mxCell>
        <mxCell id="MbBB12TEAA-Hdop7hR2p-64" value="last_name        varchar(150)" style="shape=partialRectangle;connectable=0;fillColor=none;top=0;left=0;bottom=0;right=0;align=left;spacingLeft=6;overflow=hidden;fontColor=#FFFFFF;" parent="MbBB12TEAA-Hdop7hR2p-62" vertex="1">
          <mxGeometry x="30" width="240" height="30" as="geometry">
            <mxRectangle width="240" height="30" as="alternateBounds" />
          </mxGeometry>
        </mxCell>
        <mxCell id="MbBB12TEAA-Hdop7hR2p-65" value="" style="shape=tableRow;horizontal=0;startSize=0;swimlaneHead=0;swimlaneBody=0;fillColor=none;collapsible=0;dropTarget=0;points=[[0,0.5],[1,0.5]];portConstraint=eastwest;top=0;left=0;right=0;bottom=0;fontColor=#FFFFFF;" parent="MbBB12TEAA-Hdop7hR2p-52" vertex="1">
          <mxGeometry y="150" width="270" height="30" as="geometry" />
        </mxCell>
        <mxCell id="MbBB12TEAA-Hdop7hR2p-66" value="" style="shape=partialRectangle;connectable=0;fillColor=none;top=0;left=0;bottom=0;right=0;editable=1;overflow=hidden;fontColor=#FFFFFF;" parent="MbBB12TEAA-Hdop7hR2p-65" vertex="1">
          <mxGeometry width="30" height="30" as="geometry">
            <mxRectangle width="30" height="30" as="alternateBounds" />
          </mxGeometry>
        </mxCell>
        <mxCell id="MbBB12TEAA-Hdop7hR2p-67" value="password        varchar(150)" style="shape=partialRectangle;connectable=0;fillColor=none;top=0;left=0;bottom=0;right=0;align=left;spacingLeft=6;overflow=hidden;fontColor=#FFFFFF;" parent="MbBB12TEAA-Hdop7hR2p-65" vertex="1">
          <mxGeometry x="30" width="240" height="30" as="geometry">
            <mxRectangle width="240" height="30" as="alternateBounds" />
          </mxGeometry>
        </mxCell>
        <mxCell id="MbBB12TEAA-Hdop7hR2p-68" value="" style="shape=tableRow;horizontal=0;startSize=0;swimlaneHead=0;swimlaneBody=0;fillColor=none;collapsible=0;dropTarget=0;points=[[0,0.5],[1,0.5]];portConstraint=eastwest;top=0;left=0;right=0;bottom=0;fontColor=#FFFFFF;" parent="MbBB12TEAA-Hdop7hR2p-52" vertex="1">
          <mxGeometry y="180" width="270" height="30" as="geometry" />
        </mxCell>
        <mxCell id="MbBB12TEAA-Hdop7hR2p-69" value="" style="shape=partialRectangle;connectable=0;fillColor=none;top=0;left=0;bottom=0;right=0;editable=1;overflow=hidden;fontColor=#FFFFFF;" parent="MbBB12TEAA-Hdop7hR2p-68" vertex="1">
          <mxGeometry width="30" height="30" as="geometry">
            <mxRectangle width="30" height="30" as="alternateBounds" />
          </mxGeometry>
        </mxCell>
        <mxCell id="MbBB12TEAA-Hdop7hR2p-70" value="created_at        DateTime" style="shape=partialRectangle;connectable=0;fillColor=none;top=0;left=0;bottom=0;right=0;align=left;spacingLeft=6;overflow=hidden;fontColor=#FFFFFF;" parent="MbBB12TEAA-Hdop7hR2p-68" vertex="1">
          <mxGeometry x="30" width="240" height="30" as="geometry">
            <mxRectangle width="240" height="30" as="alternateBounds" />
          </mxGeometry>
        </mxCell>
        <mxCell id="MbBB12TEAA-Hdop7hR2p-71" value="" style="shape=tableRow;horizontal=0;startSize=0;swimlaneHead=0;swimlaneBody=0;fillColor=none;collapsible=0;dropTarget=0;points=[[0,0.5],[1,0.5]];portConstraint=eastwest;top=0;left=0;right=0;bottom=0;fontColor=#FFFFFF;" parent="MbBB12TEAA-Hdop7hR2p-52" vertex="1">
          <mxGeometry y="210" width="270" height="30" as="geometry" />
        </mxCell>
        <mxCell id="MbBB12TEAA-Hdop7hR2p-72" value="" style="shape=partialRectangle;connectable=0;fillColor=none;top=0;left=0;bottom=0;right=0;editable=1;overflow=hidden;fontColor=#FFFFFF;" parent="MbBB12TEAA-Hdop7hR2p-71" vertex="1">
          <mxGeometry width="30" height="30" as="geometry">
            <mxRectangle width="30" height="30" as="alternateBounds" />
          </mxGeometry>
        </mxCell>
        <mxCell id="MbBB12TEAA-Hdop7hR2p-73" value="updated_at        DateTime" style="shape=partialRectangle;connectable=0;fillColor=none;top=0;left=0;bottom=0;right=0;align=left;spacingLeft=6;overflow=hidden;fontColor=#FFFFFF;" parent="MbBB12TEAA-Hdop7hR2p-71" vertex="1">
          <mxGeometry x="30" width="240" height="30" as="geometry">
            <mxRectangle width="240" height="30" as="alternateBounds" />
          </mxGeometry>
        </mxCell>
        <mxCell id="MbBB12TEAA-Hdop7hR2p-74" value="vehicles" style="shape=table;startSize=30;container=1;collapsible=1;childLayout=tableLayout;fixedRows=1;rowLines=0;fontStyle=1;align=center;resizeLast=1;fontColor=#FFFFFF;fillColor=#00994D;strokeColor=#00994D;strokeWidth=3;" parent="1" vertex="1">
          <mxGeometry x="760" y="155" width="270" height="210" as="geometry" />
        </mxCell>
        <mxCell id="MbBB12TEAA-Hdop7hR2p-75" value="" style="shape=tableRow;horizontal=0;startSize=0;swimlaneHead=0;swimlaneBody=0;fillColor=none;collapsible=0;dropTarget=0;points=[[0,0.5],[1,0.5]];portConstraint=eastwest;top=0;left=0;right=0;bottom=1;fontColor=#FFFFFF;" parent="MbBB12TEAA-Hdop7hR2p-74" vertex="1">
          <mxGeometry y="30" width="270" height="30" as="geometry" />
        </mxCell>
        <mxCell id="MbBB12TEAA-Hdop7hR2p-76" value="PK" style="shape=partialRectangle;connectable=0;fillColor=none;top=0;left=0;bottom=0;right=0;fontStyle=1;overflow=hidden;fontColor=#FFFFFF;" parent="MbBB12TEAA-Hdop7hR2p-75" vertex="1">
          <mxGeometry width="30" height="30" as="geometry">
            <mxRectangle width="30" height="30" as="alternateBounds" />
          </mxGeometry>
        </mxCell>
        <mxCell id="MbBB12TEAA-Hdop7hR2p-77" value="vehicletId            integer" style="shape=partialRectangle;connectable=0;fillColor=none;top=0;left=0;bottom=0;right=0;align=left;spacingLeft=6;fontStyle=5;overflow=hidden;fontColor=#FFFFFF;" parent="MbBB12TEAA-Hdop7hR2p-75" vertex="1">
          <mxGeometry x="30" width="240" height="30" as="geometry">
            <mxRectangle width="240" height="30" as="alternateBounds" />
          </mxGeometry>
        </mxCell>
        <mxCell id="MbBB12TEAA-Hdop7hR2p-78" value="" style="shape=tableRow;horizontal=0;startSize=0;swimlaneHead=0;swimlaneBody=0;fillColor=none;collapsible=0;dropTarget=0;points=[[0,0.5],[1,0.5]];portConstraint=eastwest;top=0;left=0;right=0;bottom=0;fontColor=#FFFFFF;" parent="MbBB12TEAA-Hdop7hR2p-74" vertex="1">
          <mxGeometry y="60" width="270" height="30" as="geometry" />
        </mxCell>
        <mxCell id="MbBB12TEAA-Hdop7hR2p-79" value="" style="shape=partialRectangle;connectable=0;fillColor=none;top=0;left=0;bottom=0;right=0;editable=1;overflow=hidden;fontColor=#FFFFFF;" parent="MbBB12TEAA-Hdop7hR2p-78" vertex="1">
          <mxGeometry width="30" height="30" as="geometry">
            <mxRectangle width="30" height="30" as="alternateBounds" />
          </mxGeometry>
        </mxCell>
        <mxCell id="MbBB12TEAA-Hdop7hR2p-80" value="car_make        varchar(100)" style="shape=partialRectangle;connectable=0;fillColor=none;top=0;left=0;bottom=0;right=0;align=left;spacingLeft=6;overflow=hidden;fontColor=#FFFFFF;" parent="MbBB12TEAA-Hdop7hR2p-78" vertex="1">
          <mxGeometry x="30" width="240" height="30" as="geometry">
            <mxRectangle width="240" height="30" as="alternateBounds" />
          </mxGeometry>
        </mxCell>
        <mxCell id="MbBB12TEAA-Hdop7hR2p-81" value="" style="shape=tableRow;horizontal=0;startSize=0;swimlaneHead=0;swimlaneBody=0;fillColor=none;collapsible=0;dropTarget=0;points=[[0,0.5],[1,0.5]];portConstraint=eastwest;top=0;left=0;right=0;bottom=0;fontColor=#FFFFFF;" parent="MbBB12TEAA-Hdop7hR2p-74" vertex="1">
          <mxGeometry y="90" width="270" height="30" as="geometry" />
        </mxCell>
        <mxCell id="MbBB12TEAA-Hdop7hR2p-82" value="" style="shape=partialRectangle;connectable=0;fillColor=none;top=0;left=0;bottom=0;right=0;editable=1;overflow=hidden;fontColor=#FFFFFF;" parent="MbBB12TEAA-Hdop7hR2p-81" vertex="1">
          <mxGeometry width="30" height="30" as="geometry">
            <mxRectangle width="30" height="30" as="alternateBounds" />
          </mxGeometry>
        </mxCell>
        <mxCell id="MbBB12TEAA-Hdop7hR2p-83" value="model               varchar(100)" style="shape=partialRectangle;connectable=0;fillColor=none;top=0;left=0;bottom=0;right=0;align=left;spacingLeft=6;overflow=hidden;fontColor=#FFFFFF;" parent="MbBB12TEAA-Hdop7hR2p-81" vertex="1">
          <mxGeometry x="30" width="240" height="30" as="geometry">
            <mxRectangle width="240" height="30" as="alternateBounds" />
          </mxGeometry>
        </mxCell>
        <mxCell id="MbBB12TEAA-Hdop7hR2p-84" value="" style="shape=tableRow;horizontal=0;startSize=0;swimlaneHead=0;swimlaneBody=0;fillColor=none;collapsible=0;dropTarget=0;points=[[0,0.5],[1,0.5]];portConstraint=eastwest;top=0;left=0;right=0;bottom=0;fontColor=#FFFFFF;" parent="MbBB12TEAA-Hdop7hR2p-74" vertex="1">
          <mxGeometry y="120" width="270" height="30" as="geometry" />
        </mxCell>
        <mxCell id="MbBB12TEAA-Hdop7hR2p-85" value="" style="shape=partialRectangle;connectable=0;fillColor=none;top=0;left=0;bottom=0;right=0;editable=1;overflow=hidden;fontColor=#FFFFFF;" parent="MbBB12TEAA-Hdop7hR2p-84" vertex="1">
          <mxGeometry width="30" height="30" as="geometry">
            <mxRectangle width="30" height="30" as="alternateBounds" />
          </mxGeometry>
        </mxCell>
        <mxCell id="MbBB12TEAA-Hdop7hR2p-86" value="plate_num        varchar(12)            unique" style="shape=partialRectangle;connectable=0;fillColor=none;top=0;left=0;bottom=0;right=0;align=left;spacingLeft=6;overflow=hidden;fontColor=#FFFFFF;" parent="MbBB12TEAA-Hdop7hR2p-84" vertex="1">
          <mxGeometry x="30" width="240" height="30" as="geometry">
            <mxRectangle width="240" height="30" as="alternateBounds" />
          </mxGeometry>
        </mxCell>
        <mxCell id="MbBB12TEAA-Hdop7hR2p-87" value="" style="shape=tableRow;horizontal=0;startSize=0;swimlaneHead=0;swimlaneBody=0;fillColor=none;collapsible=0;dropTarget=0;points=[[0,0.5],[1,0.5]];portConstraint=eastwest;top=0;left=0;right=0;bottom=0;fontColor=#FFFFFF;" parent="MbBB12TEAA-Hdop7hR2p-74" vertex="1">
          <mxGeometry y="150" width="270" height="30" as="geometry" />
        </mxCell>
        <mxCell id="MbBB12TEAA-Hdop7hR2p-88" value="" style="shape=partialRectangle;connectable=0;fillColor=none;top=0;left=0;bottom=0;right=0;editable=1;overflow=hidden;fontColor=#FFFFFF;" parent="MbBB12TEAA-Hdop7hR2p-87" vertex="1">
          <mxGeometry width="30" height="30" as="geometry">
            <mxRectangle width="30" height="30" as="alternateBounds" />
          </mxGeometry>
        </mxCell>
        <mxCell id="MbBB12TEAA-Hdop7hR2p-89" value="price_day        float" style="shape=partialRectangle;connectable=0;fillColor=none;top=0;left=0;bottom=0;right=0;align=left;spacingLeft=6;overflow=hidden;fontColor=#FFFFFF;" parent="MbBB12TEAA-Hdop7hR2p-87" vertex="1">
          <mxGeometry x="30" width="240" height="30" as="geometry">
            <mxRectangle width="240" height="30" as="alternateBounds" />
          </mxGeometry>
        </mxCell>
        <mxCell id="MbBB12TEAA-Hdop7hR2p-90" value="" style="shape=tableRow;horizontal=0;startSize=0;swimlaneHead=0;swimlaneBody=0;fillColor=none;collapsible=0;dropTarget=0;points=[[0,0.5],[1,0.5]];portConstraint=eastwest;top=0;left=0;right=0;bottom=0;fontColor=#FFFFFF;" parent="MbBB12TEAA-Hdop7hR2p-74" vertex="1">
          <mxGeometry y="180" width="270" height="30" as="geometry" />
        </mxCell>
        <mxCell id="MbBB12TEAA-Hdop7hR2p-91" value="" style="shape=partialRectangle;connectable=0;fillColor=none;top=0;left=0;bottom=0;right=0;editable=1;overflow=hidden;fontColor=#FFFFFF;" parent="MbBB12TEAA-Hdop7hR2p-90" vertex="1">
          <mxGeometry width="30" height="30" as="geometry">
            <mxRectangle width="30" height="30" as="alternateBounds" />
          </mxGeometry>
        </mxCell>
        <mxCell id="MbBB12TEAA-Hdop7hR2p-92" value="condition        varchar(8)" style="shape=partialRectangle;connectable=0;fillColor=none;top=0;left=0;bottom=0;right=0;align=left;spacingLeft=6;overflow=hidden;fontColor=#FFFFFF;" parent="MbBB12TEAA-Hdop7hR2p-90" vertex="1">
          <mxGeometry x="30" width="240" height="30" as="geometry">
            <mxRectangle width="240" height="30" as="alternateBounds" />
          </mxGeometry>
        </mxCell>
        <mxCell id="MbBB12TEAA-Hdop7hR2p-93" value="" style="edgeStyle=entityRelationEdgeStyle;fontSize=12;html=1;endArrow=ERoneToMany;endFill=0;fontColor=#FFFFFF;exitX=1;exitY=0.5;exitDx=0;exitDy=0;entryX=0;entryY=0.5;entryDx=0;entryDy=0;strokeColor=#00994D;strokeWidth=3;startArrow=ERzeroToMany;startFill=0;" parent="1" source="MbBB12TEAA-Hdop7hR2p-110" target="MbBB12TEAA-Hdop7hR2p-75" edge="1">
          <mxGeometry width="100" height="100" relative="1" as="geometry">
            <mxPoint x="625" y="374" as="sourcePoint" />
            <mxPoint x="815" y="374" as="targetPoint" />
          </mxGeometry>
        </mxCell>
        <mxCell id="JzSRVAhyTPlt0G2GrEUY-2" value="&lt;font color=&quot;#ffffff&quot; style=&quot;font-size: 24px;&quot;&gt;&lt;b&gt;Entity Relation Diagram&lt;/b&gt;&lt;/font&gt;" style="text;html=1;strokeColor=none;fillColor=none;align=center;verticalAlign=middle;whiteSpace=wrap;rounded=0;" parent="1" vertex="1">
          <mxGeometry x="340" y="90" width="400" height="30" as="geometry" />
        </mxCell>
      </root>
    </mxGraphModel>
  </diagram>
  <diagram id="ZP_VkaFbo9-oAwjYr_le" name="notes">
    <mxGraphModel dx="1440" dy="927" grid="1" gridSize="10" guides="1" tooltips="1" connect="1" arrows="1" fold="1" page="1" pageScale="1" pageWidth="827" pageHeight="1169" math="0" shadow="0">
      <root>
        <mxCell id="0" />
        <mxCell id="1" parent="0" />
      </root>
    </mxGraphModel>
  </diagram>
</mxfile>
